/* XPM */
static char * bitcoin16_xpm[] = {
"16 16 30 1",
" 	c None",
".	c #000000",
"+	c #666699",
"@	c #999999",
"#	c #333366",
"$	c #333333",
"%	c #CCCCCC",
"&	c #FFFFFF",
"*	c #669966",
"=	c #666666",
"-	c #006633",
";	c #663366",
">	c #9999CC",
",	c #336633",
"'	c #339966",
")	c #003300",
"!	c #CC9999",
"~	c #996699",
"{	c #003333",
"]	c #CC99CC",
"^	c #99FF66",
"/	c #CCCCFF",
"(	c #99FF99",
"_	c #996666",
":	c #669999",
"<	c #336666",
"[	c #336600",
"}	c #330033",
"|	c #006600",
"1	c #000033",
"        .       ",
"                ",
"                ",
"       ,        ",
"      @*-   .   ",
"     =:*--      ",
"    **<**,*     ",
"     *=*-*',    ",
"    ,,-)--{     ",
"     '-{,,)     ",
"    *')-'-|     ",
"     { ['-      ",
"      )),   .   ",
"                ",
"                ",
"                "};
