/* XPM */
static char * bitcoin64_xpm[] = {
"48 48 441 2",
"  	c None",
". 	c #030303",
"+ 	c #598167",
"@ 	c #217738",
"# 	c #65786A",
"$ 	c #44875A",
"% 	c #1E7335",
"& 	c #578867",
"* 	c #3B8452",
"= 	c #22783B",
"- 	c #00671A",
"; 	c #29332C",
"> 	c #658270",
", 	c #3E8154",
"' 	c #3E8554",
") 	c #28793E",
"! 	c #01671B",
"~ 	c #607D69",
"{ 	c #77847E",
"] 	c #87928B",
"^ 	c #5A7665",
"/ 	c #5B8B6A",
"( 	c #3D8452",
"_ 	c #3E8454",
": 	c #2C7A43",
"< 	c #02671D",
"[ 	c #00651B",
"} 	c #678B71",
"| 	c #6C8C75",
"1 	c #818D86",
"2 	c #667B6E",
"3 	c #6B8E78",
"4 	c #458558",
"5 	c #3D8453",
"6 	c #307E46",
"7 	c #03681E",
"8 	c #00651C",
"9 	c #6B8B75",
"0 	c #698973",
"a 	c #627268",
"b 	c #6E8F7A",
"c 	c #5F886E",
"d 	c #37834F",
"e 	c #347F4B",
"f 	c #04681E",
"g 	c #00651A",
"h 	c #2F6E3C",
"i 	c #8C9790",
"j 	c #87958D",
"k 	c #8C9891",
"l 	c #727F77",
"m 	c #698C72",
"n 	c #578463",
"o 	c #738D7A",
"p 	c #809488",
"q 	c #86968D",
"r 	c #84968B",
"s 	c #83968A",
"t 	c #7E9486",
"u 	c #728679",
"v 	c #708477",
"w 	c #3A4B40",
"x 	c #698573",
"y 	c #397A4C",
"z 	c #3D8554",
"A 	c #3E8654",
"B 	c #3A8250",
"C 	c #05681E",
"D 	c #0E6425",
"E 	c #8D9791",
"F 	c #7A9181",
"G 	c #327545",
"H 	c #001D00",
"I 	c #3B7646",
"J 	c #53835F",
"K 	c #53835E",
"L 	c #598364",
"M 	c #7A8E81",
"N 	c #85948A",
"O 	c #86998D",
"P 	c #6D7D73",
"Q 	c #73867A",
"R 	c #528464",
"S 	c #3B8451",
"T 	c #37764A",
"U 	c #367449",
"V 	c #38784B",
"W 	c #408A58",
"X 	c #06691E",
"Y 	c #00661C",
"Z 	c #005D12",
"` 	c #5A8866",
" .	c #5B8566",
"..	c #04521B",
"+.	c #005F1F",
"@.	c #41794F",
"#.	c #50825D",
"$.	c #4F825B",
"%.	c #4D8059",
"&.	c #4C805A",
"*.	c #54795E",
"=.	c #65886E",
"-.	c #708476",
";.	c #3F8354",
">.	c #408455",
",.	c #3D8553",
"'.	c #3C8653",
").	c #3B8251",
"!.	c #3A734C",
"~.	c #075A1A",
"{.	c #006219",
"].	c #03591A",
"^.	c #51725C",
"/.	c #266436",
"(.	c #046521",
"_.	c #006220",
":.	c #005911",
"<.	c #427A4E",
"[.	c #568461",
"}.	c #51825D",
"|.	c #4E7E5A",
"1.	c #4A7855",
"2.	c #4F835C",
"3.	c #547A5E",
"4.	c #87928A",
"5.	c #7A9182",
"6.	c #5E8A6D",
"7.	c #558966",
"8.	c #508C63",
"9.	c #19692C",
"0.	c #4D6E52",
"a.	c #615D62",
"b.	c #87908B",
"c.	c #89928E",
"d.	c #5F7E6A",
"e.	c #286F3E",
"f.	c #075E1A",
"g.	c #478057",
"h.	c #52825E",
"i.	c #50815C",
"j.	c #4B7856",
"k.	c #51815D",
"l.	c #52835E",
"m.	c #617D69",
"n.	c #829288",
"o.	c #8A968E",
"p.	c #8A968F",
"q.	c #8C9991",
"r.	c #888F8B",
"s.	c #5B7965",
"t.	c #1F783F",
"u.	c #42815A",
"v.	c #5B886B",
"w.	c #849287",
"x.	c #929595",
"y.	c #939B97",
"z.	c #7C8781",
"A.	c #747F78",
"B.	c #005812",
"C.	c #196428",
"D.	c #4F825C",
"E.	c #50805C",
"F.	c #51835D",
"G.	c #578263",
"H.	c #6A8371",
"I.	c #7F9385",
"J.	c #8A958F",
"K.	c #88938C",
"L.	c #78827C",
"M.	c #497F59",
"N.	c #037726",
"O.	c #1B7A38",
"P.	c #2A7F4B",
"Q.	c #237744",
"R.	c #1F7E43",
"S.	c #217B41",
"T.	c #3D845B",
"U.	c #5D8D6F",
"V.	c #809588",
"W.	c #005611",
"X.	c #1F6930",
"Y.	c #507659",
"Z.	c #538660",
"`.	c #4D835A",
" +	c #718F79",
".+	c #637D6A",
"++	c #445147",
"@+	c #919894",
"#+	c #62836C",
"$+	c #247F40",
"%+	c #027625",
"&+	c #0E782E",
"*+	c #167933",
"=+	c #2C804D",
"-+	c #287847",
";+	c #2A7F4A",
">+	c #2A804B",
",+	c #288049",
"'+	c #247F47",
")+	c #1F7D43",
"!+	c #2C844F",
"~+	c #448A5F",
"{+	c #2F6245",
"]+	c #005B16",
"^+	c #005212",
"/+	c #206C2F",
"(+	c #4F7659",
"_+	c #52765A",
":+	c #677B6B",
"<+	c #78877B",
"[+	c #4A6050",
"}+	c #36714A",
"|+	c #0B7F2E",
"1+	c #0D772D",
"2+	c #10792C",
"3+	c #2E8150",
"4+	c #287846",
"5+	c #297F4A",
"6+	c #2E8851",
"7+	c #1E6537",
"8+	c #092A16",
"9+	c #3E4C42",
"0+	c #00340D",
"a+	c #387647",
"b+	c #718A76",
"c+	c #558663",
"d+	c #157C34",
"e+	c #007D20",
"f+	c #062211",
"g+	c #0C431D",
"h+	c #0D752C",
"i+	c #0E7A2F",
"j+	c #0A7427",
"k+	c #2E8250",
"l+	c #297E4A",
"m+	c #2B814C",
"n+	c #24733F",
"o+	c #0A3218",
"p+	c #051E11",
"q+	c #769381",
"r+	c #578164",
"s+	c #2D6636",
"t+	c #3A6D44",
"u+	c #487D58",
"v+	c #057C29",
"w+	c #007B20",
"x+	c #007725",
"y+	c #008029",
"z+	c #092F17",
"A+	c #0A2214",
"B+	c #0A2E17",
"C+	c #0C5622",
"D+	c #0E7A2D",
"E+	c #0A792C",
"F+	c #297C49",
"G+	c #2B854C",
"H+	c #1E6037",
"I+	c #0F3D1F",
"J+	c #051F11",
"K+	c #082716",
"L+	c #58876A",
"M+	c #276439",
"N+	c #0B6820",
"O+	c #6F8776",
"P+	c #6B7C71",
"Q+	c #458158",
"R+	c #3C8450",
"S+	c #007924",
"T+	c #017225",
"U+	c #00862B",
"V+	c #093117",
"W+	c #0A2816",
"X+	c #0A2916",
"Y+	c #0A2715",
"Z+	c #092C16",
"`+	c #0B6C27",
" @	c #268545",
".@	c #206538",
"+@	c #0A2C18",
"@@	c #082816",
"#@	c #072715",
"$@	c #082717",
"%@	c #061D12",
"&@	c #005F18",
"*@	c #246D38",
"=@	c #728779",
"-@	c #64846F",
";@	c #317848",
">@	c #36844C",
",@	c #007223",
"'@	c #00852B",
")@	c #093517",
"!@	c #0A2716",
"~@	c #092815",
"{@	c #0A2A16",
"]@	c #0D2517",
"^@	c #125328",
"/@	c #031D0F",
"(@	c #082715",
"_@	c #082215",
":@	c #043A11",
"<@	c #006D12",
"[@	c #648268",
"}@	c #76887B",
"|@	c #3B8552",
"1@	c #3A7F4F",
"2@	c #397B4D",
"3@	c #3F8655",
"4@	c #24773D",
"5@	c #008228",
"6@	c #083617",
"7@	c #0A2616",
"8@	c #041E0F",
"9@	c #154023",
"0@	c #2C673D",
"a@	c #46915D",
"b@	c #217034",
"c@	c #00340E",
"d@	c #043514",
"e@	c #072615",
"f@	c #063815",
"g@	c #006613",
"h@	c #006113",
"i@	c #7C897F",
"j@	c #528662",
"k@	c #39794C",
"l@	c #3B7F50",
"m@	c #3D7C51",
"n@	c #128533",
"o@	c #033415",
"p@	c #0A2A15",
"q@	c #337645",
"r@	c #38794D",
"s@	c #367248",
"t@	c #2B7A42",
"u@	c #005816",
"v@	c #00651D",
"w@	c #015118",
"x@	c #005A12",
"y@	c #006313",
"z@	c #006213",
"A@	c #6F8777",
"B@	c #3E8453",
"C@	c #3F8755",
"D@	c #387C4D",
"E@	c #438558",
"F@	c #155927",
"G@	c #438D58",
"H@	c #36754A",
"I@	c #367348",
"J@	c #3C8353",
"K@	c #3E8655",
"L@	c #34814D",
"M@	c #005A15",
"N@	c #00631D",
"O@	c #00621B",
"P@	c #00400E",
"Q@	c #005612",
"R@	c #588666",
"S@	c #3C8453",
"T@	c #428F59",
"U@	c #317245",
"V@	c #173820",
"W@	c #051D12",
"X@	c #025512",
"Y@	c #2D7440",
"Z@	c #3D8654",
"`@	c #3A8350",
" #	c #005A16",
".#	c #00651E",
"+#	c #005715",
"@#	c #004F11",
"##	c #004910",
"$#	c #01360C",
"%#	c #01490F",
"&#	c #74887A",
"*#	c #3F8454",
"=#	c #418C58",
"-#	c #357847",
";#	c #0E2F19",
">#	c #092615",
",#	c #061D10",
"'#	c #081B14",
")#	c #006510",
"!#	c #016212",
"~#	c #3D8153",
"{#	c #3C8452",
"]#	c #025D1A",
"^#	c #004F12",
"/#	c #578765",
"(#	c #39824F",
"_#	c #367B4A",
":#	c #133A1E",
"<#	c #01180D",
"[#	c #082917",
"}#	c #081E16",
"|#	c #006310",
"1#	c #006110",
"2#	c #006111",
"3#	c #408356",
"4#	c #075F21",
"5#	c #00641A",
"6#	c #265E3A",
"7#	c #133C23",
"8#	c #011A0D",
"9#	c #062615",
"0#	c #092917",
"a#	c #072A15",
"b#	c #044212",
"c#	c #035113",
"d#	c #053A13",
"e#	c #005D10",
"f#	c #00630F",
"g#	c #096318",
"h#	c #3B8351",
"i#	c #0C6324",
"j#	c #00641D",
"k#	c #005A0F",
"l#	c #006A11",
"m#	c #091E16",
"n#	c #072714",
"o#	c #025113",
"p#	c #006710",
"q#	c #0F691F",
"r#	c #3F8555",
"s#	c #116728",
"t#	c #082316",
"u#	c #081E14",
"v#	c #053412",
"w#	c #006309",
"x#	c #166D29",
"y#	c #408656",
"z#	c #18662D",
"A#	c #040404",
"B#	c #005F0F",
"C#	c #082815",
"D#	c #1F7231",
"E#	c #246E37",
"F#	c #072913",
"G#	c #092616",
"H#	c #053A15",
"                                                                                                ",
"                                                                                                ",
"                                                                                                ",
"                                                        .                                       ",
"                                                                                                ",
"                                                                                                ",
"                                                                                                ",
"                                                                                                ",
"                                                                                                ",
"                                                + @                                             ",
"                                              # $ %                                             ",
"                                              & * = -                                           ",
"                              .     ;       > , ' ) !                                           ",
"                                    ~ { ] ^ / ( _ : < [                                         ",
"                                  } | 1 2 3 4 5 5 6 7 8                                         ",
"                                  9 0 a b c d 5 5 e f g h i j k l m                             ",
"                    n o p q r s t u v w x y z A ' B C [ D j E F G H                             ",
"                    I J K L } M N O P Q R S T U V W X Y Z `  ...+.                              ",
"                      @.J #.$.%.&.*.=.-.;.>.,.'.).!.~.{.].^./.(._.                              ",
"                      :.<.[.}.}.|.1.2.3.4.5.3 6.7.8.9.0.a.b.c.d.e.                              ",
"                        f.g.h.i.j.k.l.m.n.o.p.q.r.s.t.u.v.w.x.y.z.A.                            ",
"                        B.C.D.E.j.F.G.H.I.J.K.L.M.N.O.P.Q.R.S.T.U.V.q                           ",
"                          W.X.Y.Z.`. +.+++@+#+$+%+&+*+=+-+;+>+,+'+)+!+~+{+                      ",
"                          ]+^+/+(+_+:+<+[+}+|+1+&+&+2+3+4+5+>+>+>+6+7+8+              .         ",
"                          9+0+^+a+b+c+d+e+f+g+h+i+&+j+k+4+l+m+>+n+o+p+                          ",
"                        q+r+s+t+u+v+w+x+y+z+A+B+C+D+E+,+F+G+H+I+J+K+                            ",
"                      L+M+N+O+P+Q+R+S+T+U+V+W+X+Y+Z+`+ @.@+@@@#@$@%@                            ",
"                        &@*@=@-@;@z >@,@'@)@!@X+~@{@]@^@/@(@@@_@:@<@                            ",
"                          [@}@|@1@2@3@4@5@6@7@8@9@0@a@b@c@d@e@f@g@h@                            ",
"                          i@j@* z k@l@m@n@o@p@q@,.r@s@t@u@v@w@x@y@z@                            ",
"                          A@B@5 5 C@U D@E@F@G@H@I@J@K@L@M@N@O@P@Q@z@Z                           ",
"                          R@S@5 K@T@U@V@W@X@Y@C@Z@5 5 `@ #.#+#@###$#%#                          ",
"                        &#*#5 =#-#;#>#,#'#)#!#~#{#5 5 `@]#.#^#                                  ",
"                        /#(#_#:#<#[#@@K+}#|#1#2#3#' 5 ).4#5#                                    ",
"                        6#7#8#9#0#@@a#b#c#d#e#f#g#h#_ h#i#j#                                    ",
"                                      k#l#m#n#o#p#q#r#h#s#                                      ",
"                                        l#t#@@u#v#w#x#y#z#                    A#                ",
"                                        B#[#@@C#      D#E#                                      ",
"                                          F#G#                                                  ",
"                                          H#                                                    ",
"                                                                                                ",
"                                                                                                ",
"                                                                                                ",
"                                                                                                ",
"                                    .                                                           ",
"                                                                                                ",
"                                                                                                ",
"                                                                                                "};
