/* XPM */
static char * bitcoin32_xpm[] = {
"32 32 256 2",
"  	c None",
". 	c #000100",
"+ 	c #020501",
"@ 	c #050804",
"# 	c #051407",
"$ 	c #03190D",
"% 	c #01200E",
"& 	c #051F14",
"* 	c #052312",
"= 	c #082515",
"- 	c #29213A",
"; 	c #073013",
"> 	c #003316",
", 	c #033310",
"' 	c #04321A",
") 	c #0A3216",
"! 	c #2D253E",
"~ 	c #0F321B",
"{ 	c #0C3417",
"] 	c #2F2640",
"^ 	c #03381A",
"/ 	c #312B3F",
"( 	c #0E3C19",
"_ 	c #382D42",
": 	c #00440B",
"< 	c #352F43",
"[ 	c #3A2E44",
"} 	c #363044",
"| 	c #054413",
"1 	c #3B2F45",
"2 	c #004810",
"3 	c #3D344E",
"4 	c #1B4324",
"5 	c #084C0B",
"6 	c #3F3651",
"7 	c #453552",
"8 	c #005110",
"9 	c #3F394D",
"0 	c #094F16",
"a 	c #443759",
"b 	c #05501D",
"c 	c #065209",
"d 	c #00550B",
"e 	c #443E53",
"f 	c #005910",
"g 	c #1C4F24",
"h 	c #145225",
"i 	c #1F4F2F",
"j 	c #4B3E60",
"k 	c #005C1A",
"l 	c #474156",
"m 	c #035C13",
"n 	c #005F0B",
"o 	c #1A5433",
"p 	c #006015",
"q 	c #514069",
"r 	c #4F4074",
"s 	c #03601D",
"t 	c #4B455A",
"u 	c #0E5D22",
"v 	c #175931",
"w 	c #006318",
"x 	c #4E446B",
"y 	c #016412",
"z 	c #2A5731",
"A 	c #235932",
"B 	c #544478",
"C 	c #00680B",
"D 	c #55456E",
"E 	c #594575",
"F 	c #086715",
"G 	c #186031",
"H 	c #56477B",
"I 	c #1E5F36",
"J 	c #275D35",
"K 	c #5B4777",
"L 	c #564977",
"M 	c #0D682B",
"N 	c #48544A",
"O 	c #5B4A80",
"P 	c #5E4A7A",
"Q 	c #0B6C21",
"R 	c #594C7A",
"S 	c #24633A",
"T 	c #5D4C76",
"U 	c #5F4B7B",
"V 	c #126C1B",
"W 	c #196832",
"X 	c #5B4E7C",
"Y 	c #5D4D82",
"Z 	c #5B5263",
"` 	c #595368",
" .	c #634E7F",
"..	c #007521",
"+.	c #027529",
"@.	c #0A7421",
"#.	c #0F722D",
"$.	c #605381",
"%.	c #007925",
"&.	c #605667",
"*.	c #017A1E",
"=.	c #1B7133",
"-.	c #017933",
";.	c #625584",
">.	c #63596A",
",.	c #287134",
"'.	c #4F6256",
").	c #25723B",
"!.	c #107A2E",
"~.	c #007F31",
"{.	c #665888",
"].	c #1D763E",
"^.	c #367142",
"/.	c #337248",
"(.	c #6C5B85",
"_.	c #636070",
":.	c #695C8B",
"<.	c #217A41",
"[.	c #1B7D3D",
"}.	c #1F7D49",
"|.	c #2A7A48",
"1.	c #337847",
"2.	c #4F6E5A",
"3.	c #257D44",
"4.	c #437350",
"5.	c #217E4A",
"6.	c #387942",
"7.	c #2B7E3F",
"8.	c #287F46",
"9.	c #41774E",
"0.	c #327D45",
"a.	c #6E648D",
"b.	c #238242",
"c.	c #2F7E4B",
"d.	c #25814D",
"e.	c #377C4B",
"f.	c #6B6878",
"g.	c #397E4C",
"h.	c #776590",
"i.	c #22864B",
"j.	c #497A57",
"k.	c #33824F",
"l.	c #2E844A",
"m.	c #736992",
"n.	c #4D7B52",
"o.	c #54785D",
"p.	c #3A8256",
"q.	c #617569",
"r.	c #428155",
"s.	c #3F8351",
"t.	c #4D7E5A",
"u.	c #368747",
"v.	c #776C96",
"w.	c #378652",
"x.	c #3B864D",
"y.	c #3C8558",
"z.	c #527E61",
"A.	c #398754",
"B.	c #7C6D92",
"C.	c #7E6C97",
"D.	c #418553",
"E.	c #49825D",
"F.	c #6A776C",
"G.	c #567F5D",
"H.	c #4E8264",
"I.	c #438755",
"J.	c #647C69",
"K.	c #777483",
"L.	c #617D6E",
"M.	c #5C8064",
"N.	c #41895C",
"O.	c #3E8C59",
"P.	c #548561",
"Q.	c #5B826C",
"R.	c #4E8762",
"S.	c #51875D",
"T.	c #62826D",
"U.	c #837499",
"V.	c #488B64",
"W.	c #7C7889",
"X.	c #578864",
"Y.	c #85769B",
"Z.	c #678374",
"`.	c #61866A",
" +	c #558B60",
".+	c #86779C",
"++	c #68856A",
"@+	c #748175",
"#+	c #668671",
"$+	c #508F62",
"%+	c #857A99",
"&+	c #409559",
"*+	c #548E68",
"=+	c #45945F",
"-+	c #5F8B6E",
";+	c #658A6E",
">+	c #728679",
",+	c #6C8879",
"'+	c #778781",
")+	c #718A76",
"!+	c #6C8C77",
"~+	c #868293",
"{+	c #7B887C",
"]+	c #5E9374",
"^+	c #778B7E",
"/+	c #7F8C80",
"(+	c #8E8792",
"_+	c #7E8E88",
":+	c #78917D",
"<+	c #9687AD",
"[+	c #928B96",
"}+	c #9489A7",
"|+	c #7C9581",
"1+	c #908D9D",
"2+	c #8A938F",
"3+	c #958F9A",
"4+	c #958DB1",
"5+	c #829789",
"6+	c #998EAD",
"7+	c #929491",
"8+	c #94959F",
"9+	c #909994",
"0+	c #9C95A1",
"a+	c #9F93B2",
"b+	c #A095B4",
"c+	c #9E98A3",
"d+	c #A199B1",
"e+	c #9EA3A5",
"f+	c #A69FB7",
"g+	c #AA9EBE",
"h+	c #A8A1B9",
"i+	c #AAA3BB",
"j+	c #AAABB5",
"k+	c #AFAFB9",
"l+	c #B7AFC8",
"m+	c #C0B4C8",
"n+	c #BAB6C8",
"o+	c #C2B7CA",
"p+	c #C1BDCF",
"q+	c #C3C0C4",
"r+	c #C7C3D5",
"s+	c #C9C7CB",
"t+	c #CBC7D9",
"u+	c #CECCD0",
"v+	c #D3D0D5",
"w+	c #D6CFDB",
"x+	c #D6D4D8",
"y+	c #D8D9E3",
"z+	c #E0E1EB",
"A+	c #EBE8ED",
"B+	c #E9EEF0",
"C+	c #F0EDF2",
"D+	c #F3F1F5",
"E+	c #F8F5FA",
"F+	c #F9FBF8",
"G+	c #FEFFFC",
"                                                                ",
"                                                                ",
"                                    +                           ",
"                                                                ",
"                        +       +                               ",
"                                                                ",
"                            +   s.                              ",
"                              Q.=+Q                             ",
"        +       +   +   N   Z.*+k.Q 8   +       +               ",
"                        |+/+#+D.w.#.                            ",
"                    '+!+q.L.S.w.r.=.m )+e+!+i                   ",
"              X.!+!+:+5+K.o.c.e.r.=.n r.;+M                     ",
"        +     W  +P.P.G.M.`.R.r.p.,.0 2.9.s     .               ",
"                ).X.G.j.G.^+9+2+)+1.o./+2+^+                    ",
"            +   8 6.G.E.Q.@+2+,+,.-.}.|.k.V.]+-+                ",
"                  8 ^.M.)+'.4.!.!.!.0.|.l.i.3.I                 ",
"        +   +   >+g g r.7.#.> b !.!.5.d.5.v '           +       ",
"                r.j.L.7.*.@.{ & { u <.o ~ &                     ",
"            +   m T.G.g.7...^ & = i h $ & | C                   ",
"                  #+I.e.r.[.( 4 /.D.,.2 | y                     ",
"        +       '+*+w.O.e.A G D.p.y.=.w k 8 m                   ",
"                  =+s.S ~ # m 7.N.I.].k   2                     ",
"                4.J ~ & * ; f F 0.$+<.m                         ",
"                          m ' 2 V x.x.k                         ",
"        +           +   + d ' & : V i.          +   +           ",
"                          5 )                                   ",
"                            >                                   ",
"                                                                ",
"                        +                                       ",
"                                                                ",
"                                                                ",
"                                                                "};
